<?xml version="1.0" encoding="UTF-8" standalone="no"?>
<svg
   xmlns:dc="http://purl.org/dc/elements/1.1/"
   xmlns:cc="http://creativecommons.org/ns#"
   xmlns:rdf="http://www.w3.org/1999/02/22-rdf-syntax-ns#"
   xmlns:svg="http://www.w3.org/2000/svg"
   xmlns="http://www.w3.org/2000/svg"
   xmlns:sodipodi="http://sodipodi.sourceforge.net/DTD/sodipodi-0.dtd"
   xmlns:inkscape="http://www.inkscape.org/namespaces/inkscape"
   version="1.0"
   width="221.000000pt"
   height="228.000000pt"
   viewBox="0 0 221.000000 228.000000"
   preserveAspectRatio="xMidYMid meet"
   id="svg18"
   sodipodi:docname="logo.svg"
   inkscape:version="1.0 (4035a4fb49, 2020-05-01)">
  <metadata
     id="metadata24">
    <rdf:RDF>
      <cc:Work
         rdf:about="">
        <dc:format>image/svg+xml</dc:format>
        <dc:type
           rdf:resource="http://purl.org/dc/dcmitype/StillImage" />
      </cc:Work>
    </rdf:RDF>
  </metadata>
  <defs
     id="defs22" />
  <sodipodi:namedview
     inkscape:document-rotation="0"
     pagecolor="#ffffff"
     bordercolor="#666666"
     borderopacity="1"
     objecttolerance="10"
     gridtolerance="10"
     guidetolerance="10"
     inkscape:pageopacity="0"
     inkscape:pageshadow="2"
     inkscape:window-width="1920"
     inkscape:window-height="1017"
     id="namedview20"
     showgrid="false"
     inkscape:zoom="2.7960526"
     inkscape:cx="203.3051"
     inkscape:cy="166.30588"
     inkscape:window-x="-8"
     inkscape:window-y="-8"
     inkscape:window-maximized="1"
     inkscape:current-layer="svg18" />
  <g
     transform="matrix(0.10901526,0,0,-0.08317452,-10.558487,191.50416)"
     fill="#000000"
     stroke="none"
     id="g16">
    <path
       d="m 1235,2151 c -59,-26 -75,-58 -85,-164 -11,-108 4,-323 25,-373 27,-66 165,-105 248,-70 43,17 94,77 125,145 20,43 26,76 30,153 4,90 3,101 -22,152 -35,72 -120,150 -180,165 -62,15 -94,14 -141,-8 z"
       id="path2" />
    <path
       d="m 782,2139 c -24,-12 -61,-44 -82,-70 -43,-55 -99,-198 -107,-275 -7,-64 24,-173 65,-230 58,-80 185,-120 269,-85 54,22 113,130 113,208 0,18 -7,66 -15,106 -8,40 -19,114 -24,165 -6,56 -17,106 -28,124 -42,72 -118,94 -191,57 z"
       id="path4" />
    <path
       d="m 1813,1680 c -76,-31 -171,-183 -180,-291 -7,-69 6,-111 58,-188 52,-78 116,-121 179,-121 57,0 138,38 179,85 76,87 62,316 -26,429 -62,80 -143,113 -210,86 z"
       id="path6" />
    <path
       d="m 285,1624 c -66,-34 -127,-123 -155,-226 -31,-117 6,-264 88,-346 59,-59 97,-76 167,-76 126,-1 202,56 246,184 23,69 23,71 7,134 -23,88 -94,229 -137,273 -67,67 -153,90 -216,57 z"
       id="path8" />
    <path
       d="M 1060,1422 C 908,1382 857,1328 720,1061 664,953 603,888 515,842 459,812 438,794 409,751 346,657 325,582 325,454 c 0,-106 1,-113 30,-160 37,-60 102,-101 220,-139 111,-36 183,-31 328,24 134,51 203,64 323,59 97,-3 102,-4 203,-56 137,-69 163,-69 348,0 45,17 100,46 122,64 71,61 116,190 114,327 0,65 -5,87 -31,140 -42,84 -130,183 -231,258 -58,43 -111,96 -170,168 -178,219 -234,265 -349,290 -69,14 -94,13 -172,-7 z m 237,-48 c 103,-50 157,-157 152,-298 -3,-68 -9,-93 -34,-141 -27,-53 -55,-82 -55,-56 0,5 -16,37 -35,70 -30,50 -35,69 -35,123 -1,35 -7,77 -14,93 l -13,30 -34,-52 c -45,-68 -63,-79 -95,-58 -13,8 -24,20 -24,25 0,6 9,1 20,-10 11,-11 24,-20 28,-20 24,0 126,149 120,176 -5,28 -106,84 -152,84 -36,0 -38,-2 -32,-25 15,-60 14,-76 -2,-27 -10,33 -22,52 -32,52 -33,0 -130,-83 -130,-111 0,-20 -47,-62 -101,-90 -33,-17 -39,-24 -39,-52 1,-17 6,-42 13,-54 19,-34 104,-73 160,-74 26,-1 47,-4 47,-9 0,-4 -7,-24 -15,-43 -8,-20 -15,-62 -15,-94 C 980,781 964,693 945,615 918,507 910,454 910,385 910,228 865,175 723,164 c -56,-5 -83,-1 -150,20 -168,54 -224,120 -224,263 0,185 66,316 187,375 91,44 146,108 228,264 110,211 154,259 275,302 86,30 179,25 258,-14 z m -200,-186 c -3,-7 -5,-2 -5,12 0,14 2,19 5,13 2,-7 2,-19 0,-25 z m 10,-50 c -3,-7 -5,-2 -5,12 0,14 2,19 5,13 2,-7 2,-19 0,-25 z m 364,-281 c -5,-14 -16,-28 -23,-32 -10,-6 -11,-5 0,6 6,7 12,17 12,23 0,5 -6,1 -14,-9 -16,-23 -10,-51 20,-88 13,-15 26,-44 29,-65 3,-20 9,-54 14,-75 8,-34 6,-40 -22,-63 -17,-14 -38,-23 -48,-21 -15,4 -59,-24 -59,-38 0,-18 19,-39 50,-55 21,-11 60,-47 88,-82 28,-35 64,-78 80,-97 l 29,-34 29,20 c 22,16 48,22 110,24 69,3 86,8 117,32 48,36 58,34 21,-4 -37,-40 -82,-59 -138,-59 -39,0 -50,-5 -81,-37 -35,-36 -40,-38 -98,-38 -49,0 -72,6 -112,28 -119,66 -135,71 -246,75 l -106,4 -11,52 c -28,127 -22,227 15,268 9,10 26,40 39,67 28,62 99,135 146,150 19,6 64,27 99,46 35,18 65,32 67,31 1,-2 -2,-15 -7,-29 z"
       id="path10" />
    <path
       d="m 1345,774 -30,-26 30,20 c 17,10 37,22 45,25 13,5 13,6 0,6 -8,1 -28,-11 -45,-25 z"
       id="path12" />
    <path
       d="m 1312,715 c 0,-16 2,-22 5,-12 2,9 2,23 0,30 -3,6 -5,-1 -5,-18 z"
       id="path14" />
  </g>
  <text
     transform="scale(1.0688926,0.93554768)"
     id="text16"
     y="226.88364"
     x="4.6838355"
     style="font-style:normal;font-weight:normal;font-size:45.7976px;line-height:1.25;font-family:sans-serif;fill:#000000;fill-opacity:1;stroke:none;stroke-width:1.14494"
     xml:space="preserve"><tspan
       style="font-style:normal;font-variant:normal;font-weight:normal;font-stretch:normal;font-family:'Engravers MT';-inkscape-font-specification:'Engravers MT';stroke-width:1.14494"
       y="226.88364"
       x="4.6838355"
       id="tspan14"
       sodipodi:role="line">Venta</tspan></text>
</svg>
