<svg id="Capa_1" enable-background="new 0 0 512.607 512.607" height="512" viewBox="0 0 512.607 512.607" width="512" xmlns="http://www.w3.org/2000/svg"><g id="XMLID_684_"><path id="XMLID_685_" d="m283.517 139.645-27.284 27.284 25.956 25.956-21.212 21.213-25.957-25.956-31.684 31.684 37.27 37.27-21.213 21.213-37.27-37.27-31.684 31.684 25.956 25.957-21.213 21.213-25.956-25.957-34.998 34.998 15.184 73.261 74.918 15.528 188.632-188.633z"/><path id="XMLID_703_" d="m491.395 141.331 21.212-21.213-120.118-120.118-21.213 21.213 49.453 49.453-26.163 26.163-30.406-30.406-34.449 34.449-19.046-19.047-21.213 21.213 120.118 120.118 21.213-21.213-19.047-19.047 34.449-34.449-30.406-30.405 26.163-26.164z"/><path id="XMLID_704_" d="m80.564 410.83-80.564 80.565 21.213 21.212 81.221-81.22-18.4-3.814z"/></g></svg>